<svg xmlns="http://www.w3.org/2000/svg" xmlns:xlink="http://www.w3.org/1999/xlink" width="150" height="14" viewBox="0 0 150 14">
    <defs>
        <path id="izup0r9xya" d="M0 0L12.447 0 12.447 12.25 0 12.25z"/>
        <path id="qy9in7x1rc" d="M0 0L12.447 0 12.447 12.25 0 12.25z"/>
        <path id="59i6avaq7e" d="M0 0L12.447 0 12.447 12.25 0 12.25z"/>
    </defs>
    <g fill="none" fill-rule="evenodd">
        <g>
            <g>
                <g>
                    <g>
                        <path fill="#FFF" d="M1.261 12.889L4.432 12.889 4.432 1.11 1.261 1.11zM8.062 7.002L11.74 1.11 8.359 1.11 4.737 7.002 8.545 12.889 12.076 12.889zM17.144 8.39l1.325-3.628 1.325 3.627h-2.65zm-.235-7.28l-4.53 11.78h3.12l.731-2.003h4.477l.732 2.003h3.12l-4.53-11.78h-3.12zM25.44 12.889L28.61 12.889 28.61 1.11 25.44 1.11zM32.241 7.002L35.918 1.11 32.538 1.11 28.915 7.002 32.723 12.889 36.255 12.889zM41.213 8.39l1.326-3.628 1.325 3.627h-2.65zm2.885-7.28h-3.119l-4.53 11.78h3.12l.731-2.003h4.477l.732 2.003h3.119l-4.53-11.78z" transform="translate(-113.000000, -99.000000) translate(0.000000, 44.000000) translate(0.000000, 53.000000) translate(113.000000, 2.000000)"/>
                        <g>
                            <g transform="translate(-113.000000, -99.000000) translate(0.000000, 44.000000) translate(0.000000, 53.000000) translate(113.000000, 2.000000) translate(48.628111, 0.875000)">
                                <mask id="takd8ifwhb" fill="#fff">
                                    <use xlink:href="#izup0r9xya"/>
                                </mask>
                                <path fill="#FFF" d="M8.975 4.93c-.157-.37-.37-.693-.638-.967-.268-.275-.584-.491-.947-.648-.364-.157-.753-.236-1.166-.236-.425 0-.82.079-1.183.236-.363.157-.68.373-.948.648-.268.274-.478.597-.629.968-.15.37-.226.768-.226 1.194 0 .426.075.825.226 1.195.151.37.36.692.63.968.268.274.584.49.947.647.363.157.758.236 1.183.236.413 0 .802-.079 1.166-.236.363-.157.679-.373.947-.647.269-.276.481-.598.638-.968.156-.37.235-.769.235-1.195 0-.426-.079-.825-.235-1.194m2.986 3.592c-.324.746-.769 1.394-1.334 1.943-.565.55-1.224.985-1.98 1.304-.754.32-1.562.48-2.423.48s-1.67-.16-2.424-.48c-.755-.32-1.415-.754-1.98-1.304S.81 9.27.487 8.523C.162 7.777 0 6.978 0 6.125c0-.853.162-1.652.487-2.398.324-.746.768-1.394 1.333-1.943.565-.55 1.225-.985 1.98-1.305C4.555.16 5.363 0 6.224 0c.86 0 1.669.16 2.424.48.755.32 1.414.755 1.98 1.305.564.55 1.009 1.197 1.333 1.943.324.746.486 1.545.486 2.398 0 .853-.162 1.652-.486 2.398" mask="url(#takd8ifwhb)"/>
                            </g>
                            <path fill="#FFF" d="M29.363.236L27.718 6.854 26.098.236 24.773.236 23.448.236 21.827 6.854 20.183.236 16.895.236 20.202 12.015 23.109 12.015 24.773 5.415 26.436 12.015 29.343 12.015 32.651.236zM41.863.235L41.863 2.905 36.981 2.905 36.981 4.711 41.46 4.711 41.46 7.471 36.981 7.471 36.981 9.335 41.896 9.335 41.896 12.015 33.827 12.015 33.827.235zM100.5 12.015L97.313 12.015 92.766 5.334 92.766 12.015 89.696 12.015 89.696.235 92.917.235 97.43 6.983 97.43.235 100.5.235z" transform="translate(-113.000000, -99.000000) translate(0.000000, 44.000000) translate(0.000000, 53.000000) translate(113.000000, 2.000000) translate(48.628111, 0.875000)"/>
                            <g transform="translate(-113.000000, -99.000000) translate(0.000000, 44.000000) translate(0.000000, 53.000000) translate(113.000000, 2.000000) translate(48.628111, 0.875000) translate(62.484728, 0.000000)">
                                <mask id="wdo071sgcd" fill="#fff">
                                    <use xlink:href="#qy9in7x1rc"/>
                                </mask>
                                <path fill="#FFF" d="M8.975 4.93c-.157-.37-.37-.693-.638-.967-.268-.275-.584-.491-.947-.648-.364-.157-.753-.236-1.166-.236-.425 0-.82.079-1.183.236-.364.157-.68.373-.948.648-.268.274-.478.597-.63.968-.15.37-.225.768-.225 1.194 0 .426.075.825.226 1.195.151.37.36.692.63.968.268.274.583.49.947.647.363.157.758.236 1.183.236.413 0 .802-.079 1.166-.236.363-.157.679-.373.947-.647.269-.276.481-.598.638-.968.156-.37.234-.769.234-1.195 0-.426-.078-.825-.234-1.194m2.986 3.592c-.325.746-.77 1.394-1.334 1.943-.565.55-1.225.985-1.98 1.304-.754.32-1.562.48-2.423.48s-1.67-.16-2.424-.48c-.755-.32-1.415-.754-1.98-1.304S.81 9.27.486 8.523C.162 7.777 0 6.978 0 6.125c0-.853.162-1.652.486-2.398.325-.746.77-1.394 1.334-1.943.565-.55 1.225-.985 1.98-1.305C4.554.16 5.363 0 6.224 0c.86 0 1.669.16 2.424.48.754.32 1.414.755 1.98 1.305.564.55 1.008 1.197 1.333 1.943.324.746.486 1.545.486 2.398 0 .853-.162 1.652-.486 2.398" mask="url(#wdo071sgcd)"/>
                            </g>
                            <g transform="translate(-113.000000, -99.000000) translate(0.000000, 44.000000) translate(0.000000, 53.000000) translate(113.000000, 2.000000) translate(48.628111, 0.875000) translate(75.851043, 0.000000)">
                                <mask id="vsjt8x0naf" fill="#fff">
                                    <use xlink:href="#59i6avaq7e"/>
                                </mask>
                                <path fill="#FFF" d="M8.975 4.93c-.157-.37-.37-.693-.638-.967-.268-.275-.584-.491-.947-.648-.364-.157-.753-.236-1.166-.236-.425 0-.82.079-1.183.236-.363.157-.68.373-.948.648-.268.274-.478.597-.629.968-.15.37-.226.768-.226 1.194 0 .426.075.825.226 1.195.151.37.36.692.63.968.268.274.584.49.947.647.363.157.758.236 1.183.236.413 0 .802-.079 1.166-.236.363-.157.679-.373.947-.647.269-.276.481-.598.638-.968.157-.37.235-.769.235-1.195 0-.426-.078-.825-.235-1.194m2.986 3.592c-.324.746-.769 1.394-1.334 1.943-.565.55-1.224.985-1.98 1.304-.754.32-1.562.48-2.423.48s-1.67-.16-2.424-.48c-.755-.32-1.415-.754-1.98-1.304S.81 9.27.487 8.523C.162 7.777 0 6.978 0 6.125c0-.853.162-1.652.487-2.398.324-.746.768-1.394 1.333-1.943.565-.55 1.225-.985 1.98-1.305C4.555.16 5.363 0 6.224 0c.86 0 1.669.16 2.424.48.755.32 1.414.755 1.98 1.305.564.55 1.009 1.197 1.333 1.943.324.746.486 1.545.486 2.398 0 .853-.162 1.652-.486 2.398" mask="url(#vsjt8x0naf)"/>
                            </g>
                            <path fill="#FFF" d="M61.976.235L61.976 3.197 59.074 3.197 59.074 12.015 55.92 12.015 55.92 3.197 53.018 3.197 53.018.235zM49.142 9.22c-.264.197-.612.296-1.042.296h-1.772V7.109H48.1c.43 0 .778.1 1.042.297.265.197.397.5.397.906 0 .408-.132.71-.397.908zm-2.784-6.506h1.384c.332 0 .612.087.84.26.227.172.34.437.34.795 0 .358-.113.623-.34.796-.228.173-.508.26-.84.26h-1.384v-2.11zm5.703 4.067c-.347-.482-.856-.841-1.527-1.077.391-.224.71-.53.956-.917s.37-.833.37-1.337c0-.505-.096-.957-.286-1.355-.19-.398-.453-.735-.788-1.01C50.45.81 50.053.6 49.595.455c-.459-.147-.957-.22-1.494-.22h-4.68v11.78h4.865c.671 0 1.272-.082 1.803-.245.532-.162.982-.395 1.35-.698.37-.303.652-.67.848-1.102.196-.432.294-.917.294-1.455 0-.673-.174-1.251-.52-1.734z" transform="translate(-113.000000, -99.000000) translate(0.000000, 44.000000) translate(0.000000, 53.000000) translate(113.000000, 2.000000) translate(48.628111, 0.875000)"/>
                        </g>
                    </g>
                </g>
            </g>
        </g>
    </g>
</svg>
